<svg width="998" height="323" viewBox="0 0 998 323" fill="none" xmlns="http://www.w3.org/2000/svg">
<g clip-path="url(#clip0_37_5)">
<path d="M232.2 199.645V212.392C210.235 236.841 190.035 256.976 171.601 272.796C153.297 288.746 135.385 300.971 117.865 309.469C100.346 318.098 83.4142 322.413 67.0713 322.413C52.951 322.413 40.7919 319.602 30.5939 313.98C20.5267 308.358 12.8782 300.121 7.64848 289.269C2.5495 278.548 0 265.801 0 251.027C0 239.391 1.83041 227.101 5.49122 214.157C9.28277 201.083 14.7086 187.943 21.7687 174.738C28.8289 161.403 37.4579 147.674 47.6559 133.554C57.9846 119.434 70.0784 104.595 83.9371 89.0362C98.3189 72.9547 112.505 59.096 126.494 47.4598C140.484 35.6929 153.166 26.4755 164.54 19.8076C175.915 13.1397 186.44 8.17145 196.115 4.90287C205.921 1.63429 214.027 0 220.433 0C226.97 0 232.527 1.56892 237.103 4.70675C241.679 7.84459 245.209 12.4206 247.693 18.4348C250.177 24.449 251.419 31.3784 251.419 39.223C251.419 53.997 246.386 70.4706 236.318 88.6439C226.251 106.686 213.7 124.141 198.664 141.007C183.629 157.872 169.247 171.666 155.519 182.387C141.922 192.977 132.116 198.272 126.102 198.272C122.049 198.272 118.257 196.703 114.727 193.565C111.328 190.297 109.628 186.636 109.628 182.583C109.628 175.131 113.551 166.109 121.395 155.519C129.371 144.929 138 135.254 147.282 126.494C156.696 117.604 162.318 113.158 164.148 113.158C165.063 113.158 165.521 113.551 165.521 114.335C165.521 115.512 164.802 117.538 163.364 120.415C162.056 123.291 161.403 125.056 161.403 125.71C161.403 126.756 161.795 127.279 162.579 127.279C164.802 127.279 171.208 121.33 181.799 109.432C192.389 97.5345 202.064 84.4601 210.824 70.2091C219.714 55.8274 224.159 44.0605 224.159 34.9085C224.159 31.1169 223.31 28.2405 221.61 26.2794C220.041 24.1875 217.622 23.1416 214.354 23.1416C205.202 23.1416 191.277 30.5939 172.581 45.4987C154.016 60.2726 134.927 79.165 115.316 102.176C95.8348 125.056 79.5572 148.72 66.4829 173.169C53.4086 197.618 46.8714 219.126 46.8714 237.691C46.8714 248.412 48.4404 257.368 51.5782 264.559C54.8468 271.75 59.5535 277.306 65.6985 281.229C71.9741 285.151 79.4919 287.112 88.2517 287.112C107.21 287.112 128.717 279.725 152.774 264.951C176.83 250.177 203.306 228.408 232.2 199.645ZM253.577 165.325C273.45 147.282 292.734 133.881 311.43 125.121C330.127 116.361 344.574 111.982 354.772 111.982C357.517 111.982 360.067 113.158 362.42 115.512C364.774 117.734 366.604 120.349 367.912 123.356C369.35 126.363 370.069 128.586 370.069 130.024C370.069 132.378 369.154 134.143 367.323 135.319C365.493 136.365 362.29 137.673 357.714 139.242C358.629 141.333 359.805 144.014 361.244 147.282C362.682 150.551 363.793 153.231 364.578 155.323C365.362 157.284 365.754 159.049 365.754 160.618C365.754 163.756 362.551 169.639 356.145 178.268C349.869 186.767 345.424 193.042 342.809 197.095C340.325 201.148 339.083 206.117 339.083 212C339.083 221.675 343.528 226.513 352.418 226.513C361.571 226.513 375.887 217.949 395.368 200.822V212.785C362.29 249.523 338.625 267.893 324.374 267.893C319.275 267.893 315.614 266.193 313.392 262.794C311.3 259.525 310.254 254.622 310.254 248.085C310.254 237.757 313.98 222.786 321.432 203.175C302.344 224.355 288.158 239.456 278.875 248.478C269.593 257.368 261.944 261.813 255.93 261.813C253.054 261.813 249.458 259.329 245.144 254.361C240.829 249.393 236.972 242.986 233.573 235.142C230.304 227.166 228.67 218.93 228.67 210.431C228.67 204.286 229.258 199.187 230.435 195.134C231.612 190.951 233.9 186.701 237.299 182.387C240.698 178.072 246.124 172.385 253.577 165.325ZM347.516 143.752C313.522 159.311 289.269 172.516 274.757 183.367C260.375 194.219 253.184 205.398 253.184 216.903C253.184 221.087 253.903 224.552 255.342 227.297C256.78 229.912 258.741 231.219 261.225 231.219C262.663 231.219 265.213 230.304 268.874 228.474C282.602 220.368 295.153 209.843 306.528 196.899C317.902 183.825 331.565 166.109 347.516 143.752ZM523.627 200.822V213.569C510.029 222.198 499.309 226.513 491.464 226.513C487.149 226.513 482.573 225.794 477.736 224.355C465.969 239.26 455.836 250.177 447.338 257.107C438.971 264.036 430.538 267.501 422.039 267.501C412.234 267.501 404.65 262.336 399.29 252.008C394.06 241.679 391.445 228.866 391.445 213.569C391.445 192.781 397.721 170.162 410.272 145.713C422.824 121.134 437.925 98.1882 455.575 76.877C473.356 55.4351 490.549 37.7194 507.153 23.7299C523.758 9.74037 535.001 2.74561 540.885 2.74561C546.507 2.74561 549.318 6.60253 549.318 14.3164C549.318 48.5711 505.388 108.321 417.529 193.565C417.267 195.919 417.136 200.56 417.136 207.49C417.136 225.532 421.974 234.553 431.649 234.553C435.44 234.553 439.232 233.05 443.024 230.043C446.946 226.905 452.895 221.021 460.87 212.392C457.732 205.332 456.163 200.103 456.163 196.703C456.163 189.512 459.105 181.733 464.988 173.366C470.872 164.998 477.54 157.807 484.992 151.793C492.575 145.648 498.066 142.576 501.466 142.576C506.826 142.576 509.506 146.432 509.506 154.146C509.506 160.03 507.938 167.09 504.8 175.327C501.793 183.564 497.347 192.977 491.464 203.567C493.687 205.398 495.452 206.77 496.759 207.686C498.066 208.47 500.028 208.862 502.642 208.862C508.657 208.862 515.651 206.182 523.627 200.822ZM424 171.404C430.799 165.521 437.598 158.592 444.396 150.616C451.326 142.51 461.393 130.155 474.598 113.551C487.28 97.5998 497.217 84.3294 504.408 73.7392C511.729 63.0182 517.22 54.1277 520.881 47.0676C524.542 40.0074 526.372 35.1699 526.372 32.5551C526.372 30.5939 525.849 29.6134 524.803 29.6134C521.927 29.6134 515.913 34.3855 506.761 43.9297C497.74 53.3432 487.411 66.2868 475.775 82.7605C459.693 105.51 448.057 122.637 440.866 134.143C433.675 145.648 428.053 158.069 424 171.404ZM546.572 165.325C566.445 147.282 585.73 133.881 604.426 125.121C623.122 116.361 637.569 111.982 647.767 111.982C650.513 111.982 653.063 113.158 655.416 115.512C657.769 117.734 659.6 120.349 660.907 123.356C662.345 126.363 663.064 128.586 663.064 130.024C663.064 132.378 662.149 134.143 660.319 135.319C658.488 136.365 655.285 137.673 650.709 139.242C651.624 141.333 652.801 144.014 654.239 147.282C655.677 150.551 656.789 153.231 657.573 155.323C658.358 157.284 658.75 159.049 658.75 160.618C658.75 163.756 655.547 169.639 649.14 178.268C642.865 186.767 638.419 193.042 635.804 197.095C633.32 201.148 632.078 206.117 632.078 212C632.078 221.675 636.524 226.513 645.414 226.513C654.566 226.513 668.882 217.949 688.363 200.822V212.785C655.285 249.523 631.621 267.893 617.37 267.893C612.271 267.893 608.61 266.193 606.387 262.794C604.295 259.525 603.249 254.622 603.249 248.085C603.249 237.757 606.976 222.786 614.428 203.175C595.339 224.355 581.154 239.456 571.871 248.478C562.588 257.368 554.94 261.813 548.926 261.813C546.049 261.813 542.454 259.329 538.139 254.361C533.825 249.393 529.968 242.986 526.568 235.142C523.3 227.166 521.666 218.93 521.666 210.431C521.666 204.286 522.254 199.187 523.431 195.134C524.607 190.951 526.895 186.701 530.295 182.387C533.694 178.072 539.12 172.385 546.572 165.325ZM640.511 143.752C606.518 159.311 582.265 172.516 567.753 183.367C553.371 194.219 546.18 205.398 546.18 216.903C546.18 221.087 546.899 224.552 548.337 227.297C549.775 229.912 551.737 231.219 554.221 231.219C555.659 231.219 558.208 230.304 561.869 228.474C575.597 220.368 588.149 209.843 599.523 196.899C610.898 183.825 624.561 166.109 640.511 143.752ZM780.537 198.272V212.785C753.212 249 730.986 267.108 713.858 267.108C704.575 267.108 697.254 262.075 691.893 252.008C686.664 241.81 684.049 228.474 684.049 212C684.049 198.664 687.187 182.844 693.462 164.54C699.738 146.106 708.105 127.475 718.565 108.648C729.155 89.6899 740.072 73.2162 751.316 59.2267C762.691 45.1064 773.216 35.2353 782.891 29.6134C786.813 27.26 789.885 26.0833 792.108 26.0833C794.854 26.0833 796.684 27.3253 797.599 29.8095C798.514 32.1628 798.972 36.2813 798.972 42.1647C798.972 60.338 791.585 82.6951 776.811 109.236C762.037 135.646 741.445 162.645 715.035 190.231C713.727 197.03 713.074 202.26 713.074 205.921C713.074 214.288 714.839 221.087 718.369 226.317C722.03 231.546 727.063 234.161 733.47 234.161C736.738 234.161 740.268 232.919 744.06 230.435C747.851 227.82 751.839 224.617 756.023 220.825C760.207 217.034 768.378 209.516 780.537 198.272ZM721.899 162.971C728.698 156.304 735.235 148.72 741.51 140.222C747.917 131.724 753.931 122.637 759.553 112.962C765.175 103.287 769.555 94.5927 772.693 86.8789C775.961 79.165 777.596 73.347 777.596 69.4247C777.596 66.4176 776.55 64.914 774.458 64.914C773.673 64.914 772.17 65.6331 769.947 67.0713C761.972 73.6084 753.016 86.4213 743.079 105.51C733.143 124.468 726.083 143.621 721.899 162.971ZM872.711 198.272V212.785C845.386 249 823.159 267.108 806.032 267.108C796.749 267.108 789.428 262.075 784.067 252.008C778.838 241.81 776.223 228.474 776.223 212C776.223 198.664 779.361 182.844 785.636 164.54C791.912 146.106 800.279 127.475 810.739 108.648C821.329 89.6899 832.246 73.2162 843.49 59.2267C854.865 45.1064 865.39 35.2353 875.065 29.6134C878.987 27.26 882.059 26.0833 884.282 26.0833C887.028 26.0833 888.858 27.3253 889.773 29.8095C890.688 32.1628 891.146 36.2813 891.146 42.1647C891.146 60.338 883.759 82.6951 868.985 109.236C854.211 135.646 833.619 162.645 807.209 190.231C805.901 197.03 805.248 202.26 805.248 205.921C805.248 214.288 807.013 221.087 810.543 226.317C814.204 231.546 819.237 234.161 825.644 234.161C828.912 234.161 832.442 232.919 836.234 230.435C840.025 227.82 844.013 224.617 848.197 220.825C852.381 217.034 860.552 209.516 872.711 198.272ZM814.073 162.971C820.871 156.304 827.409 148.72 833.684 140.222C840.091 131.724 846.105 122.637 851.727 112.962C857.349 103.287 861.729 94.5927 864.867 86.8789C868.135 79.165 869.769 73.347 869.769 69.4247C869.769 66.4176 868.724 64.914 866.632 64.914C865.847 64.914 864.344 65.6331 862.121 67.0713C854.146 73.6084 845.19 86.4213 835.253 105.51C825.317 124.468 818.257 143.621 814.073 162.971ZM997.244 200.037V213.177C988.615 221.021 981.686 226.251 976.456 228.866C971.226 231.481 963.708 232.527 953.903 232.004C936.906 252.138 921.936 262.206 908.992 262.206C901.671 262.206 895.003 259.787 888.989 254.949C882.974 250.112 878.137 243.509 874.476 235.142C870.946 226.774 869.181 217.426 869.181 207.097C869.181 198.73 871.927 189.447 877.418 179.249C883.04 169.051 890.231 159.572 898.991 150.812C907.881 141.922 917.36 134.796 927.427 129.436C937.494 123.945 946.843 121.199 955.472 121.199C961.617 121.199 966.454 122.18 969.984 124.141C973.514 125.971 975.279 128.586 975.279 131.985C975.279 134.6 973.776 137.607 970.769 141.007C975.737 142.053 979.136 143.818 980.967 146.302C982.797 148.655 983.712 153.035 983.712 159.441C983.712 165.717 982.209 173.627 979.202 183.171C976.325 192.716 972.337 201.671 967.239 210.039L970.769 213.569H973.71C975.933 213.569 978.09 213.046 980.182 212C982.405 210.823 984.366 209.647 986.066 208.47C987.765 207.163 991.491 204.352 997.244 200.037ZM956.844 148.459C945.993 154.996 936.71 160.945 928.996 166.305C921.282 171.535 914.745 176.896 909.385 182.387C904.024 187.747 900.429 193.173 898.598 198.664C895.33 213.308 893.695 221.218 893.695 222.394C893.695 231.023 899.71 235.338 911.738 235.338C917.36 235.338 926.773 230.5 939.979 220.825C937.756 214.68 936.645 208.797 936.645 203.175C936.645 194.938 938.344 186.571 941.744 178.072C945.143 169.443 950.177 159.572 956.844 148.459Z" fill="white"/>
</g>
<defs>
<clipPath id="clip0_37_5">
<rect width="998" height="323" fill="white"/>
</clipPath>
</defs>
</svg>
