<svg width="564" height="182" viewBox="0 0 564 182" fill="none" xmlns="http://www.w3.org/2000/svg">
<path d="M106.516 100.588V105.739C99.1299 111.958 91.8086 117.919 84.552 123.621C77.2954 129.258 68.4839 135.575 58.1173 142.572C52.8045 149.829 48.2367 155.757 44.4141 160.357C40.5914 165.022 37.2871 168.877 34.5011 171.922C31.7151 174.968 30.2897 176.523 30.2249 176.587C29.3178 177.689 27.7952 178.79 25.6571 179.892C23.519 180.993 21.7373 181.544 20.3119 181.544C18.3034 181.544 16.6188 180.799 15.2582 179.309C13.9624 177.883 13.3145 176.166 13.3145 174.158C13.3145 168.974 16.0357 163.435 21.4781 157.539C26.9206 151.708 34.8898 145.714 45.3859 139.559C50.5692 132.108 55.5257 124.625 60.2554 117.109C64.9852 109.529 69.0994 102.629 72.5981 96.4087C76.1616 90.1887 79.4335 84.066 82.4139 78.0405C77.749 81.9279 73.1164 85.6858 68.5163 89.3141C63.9161 92.8776 59.4132 96.3115 55.0074 99.6158C50.6016 102.855 47.8804 104.864 46.8437 105.641C45.8071 106.419 44.9 107.099 44.1225 107.682C32.8489 117.53 24.4261 122.455 18.8541 122.455C13.5412 122.455 9.07068 119.928 5.44239 114.874C1.8141 109.82 -3.87132e-05 103.438 -3.87132e-05 95.7284C-3.87132e-05 90.869 0.777451 85.8154 2.33243 80.5673C3.88741 75.2545 6.25228 69.812 9.42703 64.24C12.6666 58.668 16.5216 53.2904 20.9922 48.1071C25.4628 42.9238 30.3869 38.1617 35.7645 33.8207C44.0577 27.2121 53.3552 21.3161 63.657 16.1328C73.9587 10.8848 83.5477 6.90013 92.4241 4.17891C101.3 1.3929 107.844 -9.79602e-05 112.056 -9.79602e-05C114.518 -9.79602e-05 116.461 0.615415 117.887 1.84644C119.377 3.01268 120.414 4.63245 120.997 6.70575C121.645 8.71427 121.969 10.8524 121.969 13.12C121.969 15.1934 121.321 17.2667 120.025 19.34C118.146 22.126 114.842 25.074 110.112 28.1839C105.382 31.2291 100.62 33.9503 95.8256 36.3476C91.0311 38.68 88.2775 39.8463 87.5648 39.8463C87.176 39.8463 86.9817 39.7167 86.9817 39.4575C86.9817 38.8744 87.7268 37.9349 89.2169 36.6391C90.7071 35.3433 92.3593 34.0151 94.1734 32.6545C98.1905 29.6093 100.555 26.3698 101.268 22.9359C94.9833 24.6852 88.731 26.9853 82.5111 29.8361C76.2912 32.6869 70.136 36.0884 64.0457 40.0406C57.9554 43.9929 51.865 48.4958 45.7747 53.5495C38.9069 59.3159 33.0433 65.3415 28.184 71.6262C23.3895 77.8461 19.7288 83.6125 17.2019 88.9253C14.7399 94.2382 13.5089 98.32 13.5089 101.171C13.5089 103.309 14.1892 105.188 15.5498 106.808C16.9104 108.363 18.7569 109.14 21.0894 109.14C23.8106 109.14 27.1797 107.941 31.1967 105.544C35.5377 102.953 40.2999 99.6482 45.4831 95.6312C50.7312 91.5494 55.5581 87.6943 59.9639 84.066C64.3697 80.4377 69.1318 76.4531 74.2503 72.1121C78.98 68.1599 82.6407 64.9851 85.2323 62.5878C87.8887 60.1258 89.8648 57.9877 91.1607 56.1736C93.8819 52.4157 96.5707 50.2452 99.2271 49.6621C101.948 49.079 104.248 49.6297 106.127 51.3142C108.071 52.934 109.043 54.9425 109.043 57.3398C109.043 58.1173 107.618 61.1625 104.767 66.4753C101.981 71.7234 97.6721 79.3687 91.841 89.4113C86.0746 99.389 78.9476 111.181 70.46 124.787C77.9757 120.77 89.9944 112.704 106.516 100.588ZM117.498 83.5801C127.346 74.6389 136.903 67.9979 146.168 63.6569C155.433 59.3159 162.593 57.1454 167.646 57.1454C169.007 57.1454 170.27 57.7285 171.437 58.8948C172.603 59.9962 173.51 61.292 174.158 62.7822C174.87 64.2724 175.227 65.3739 175.227 66.0866C175.227 67.2528 174.773 68.1275 173.866 68.7106C172.959 69.2289 171.372 69.8768 169.104 70.6543C169.558 71.691 170.141 73.0192 170.853 74.6389C171.566 76.2587 172.117 77.5869 172.506 78.6236C172.894 79.5954 173.089 80.4701 173.089 81.2476C173.089 82.8026 171.501 85.7182 168.327 89.9944C165.217 94.2058 163.014 97.3157 161.718 99.3243C160.487 101.333 159.871 103.795 159.871 106.71C159.871 111.505 162.074 113.902 166.48 113.902C171.015 113.902 178.11 109.658 187.764 101.171V107.099C171.372 125.305 159.645 134.408 152.582 134.408C150.056 134.408 148.241 133.566 147.14 131.882C146.103 130.262 145.585 127.832 145.585 124.593C145.585 119.474 147.432 112.056 151.125 102.337C141.665 112.833 134.635 120.316 130.035 124.787C125.435 129.193 121.645 131.396 118.664 131.396C117.239 131.396 115.457 130.165 113.319 127.703C111.181 125.241 109.27 122.066 107.585 118.178C105.965 114.226 105.155 110.144 105.155 105.933C105.155 102.888 105.447 100.361 106.03 98.3524C106.613 96.2791 107.747 94.1734 109.432 92.0353C111.116 89.8972 113.805 87.0788 117.498 83.5801ZM164.05 72.8896C147.205 80.5997 135.186 87.1436 127.994 92.5212C120.867 97.8989 117.304 103.438 117.304 109.14C117.304 111.213 117.66 112.93 118.373 114.291C119.086 115.587 120.057 116.235 121.288 116.235C122.001 116.235 123.265 115.781 125.079 114.874C131.882 110.857 138.102 105.641 143.738 99.2271C149.375 92.748 156.146 83.9688 164.05 72.8896ZM252.49 83.3857C241.087 96.0847 235.385 104.929 235.385 109.918C235.385 112.704 236.519 114.097 238.787 114.097C240.666 114.097 243.095 113.125 246.076 111.181C249.121 109.172 253.85 105.641 260.265 100.588V107.294C251.064 116.364 244.002 122.908 239.078 126.925C234.154 130.942 230.137 132.951 227.027 132.951C221.714 132.951 219.058 129.452 219.058 122.455C219.058 120.381 219.382 118.34 220.03 116.332C220.678 114.323 221.552 112.25 222.654 110.112C223.82 107.909 225.569 104.799 227.902 100.782C230.234 96.7002 232.923 92.1001 235.968 86.9816C232.275 88.8605 227.643 92.586 222.071 98.158C218.442 101.657 215.365 104.993 212.838 108.168C210.311 111.278 207.59 114.777 204.674 118.664C201.823 122.487 199.718 125.079 198.357 126.439C197.061 127.735 195.733 128.383 194.372 128.383C192.299 128.383 190.388 126.212 188.638 121.871C186.889 117.53 186.014 112.477 186.014 106.71C186.014 103.147 186.403 100.361 187.181 98.3524C188.023 96.3439 189.643 93.4931 192.04 89.8C196.511 82.9322 200.366 77.9109 203.605 74.7361C206.845 71.4966 209.955 69.8768 212.935 69.8768C215.008 69.8768 216.661 70.2332 217.892 70.9459C219.187 71.6586 219.835 72.76 219.835 74.2502C219.835 74.8981 219.641 75.5784 219.252 76.2911C218.863 77.0038 218.41 77.6517 217.892 78.2348C217.438 78.818 216.434 79.9518 214.879 81.6364C204.642 92.9748 199.523 100.329 199.523 103.698C199.523 105.577 200.139 106.516 201.37 106.516C202.147 106.516 203.638 105.285 205.84 102.823C208.108 100.296 210.991 97.0242 214.49 93.0071C218.054 88.9253 222.233 84.6815 227.027 80.2757C231.886 75.87 237.394 71.6262 243.549 67.5443C246.983 65.1471 249.833 63.9485 252.101 63.9485C253.138 63.9485 254.142 65.3739 255.114 68.2247C256.151 71.0754 256.669 73.9586 256.669 76.8742C256.669 78.2996 255.276 80.4701 252.49 83.3857ZM332.96 100.976V107.488C325.703 115.975 319.613 122.422 314.689 126.828C309.765 131.169 305.651 133.339 302.346 133.339C299.172 133.339 296.288 132.4 293.697 130.521C291.17 128.642 288.87 126.05 286.797 122.746C284.788 119.442 282.391 114.842 279.605 108.946C276.3 113.028 273.32 116.85 270.664 120.414C268.007 123.912 266.161 126.245 265.124 127.411C264.087 128.577 263.148 129.16 262.306 129.16C260.556 129.16 259.293 128.059 258.515 125.856C257.738 123.588 257.349 120.316 257.349 116.04C257.349 110.209 258.029 104.605 259.39 99.2271C260.815 93.7846 262.824 88.5042 265.416 83.3857C268.072 78.2672 271.441 72.76 275.523 66.864C279.67 60.9033 284.302 54.6834 289.421 48.2043C296.483 39.2631 302.573 31.9742 307.692 26.3374C312.81 20.6358 317.248 16.3596 321.006 13.5088C324.829 10.5932 328.004 9.13541 330.53 9.13541C333.64 9.13541 335.195 10.5284 335.195 13.3144C335.195 15.7117 329.461 24.3613 317.993 39.2631C306.525 54.1002 289.809 74.3798 267.845 100.102V108.46C282.553 92.7156 294.377 81.0208 303.318 73.3755C312.324 65.7302 319.289 61.9075 324.213 61.9075C326.222 61.9075 327.777 63.1062 328.878 65.5034C329.98 67.8359 330.53 70.5571 330.53 73.6671C330.53 80.0166 327.809 85.9125 322.367 91.355C316.924 96.7326 308.566 102.92 297.293 109.918C299.236 112.833 300.953 114.971 302.444 116.332C303.934 117.628 305.813 118.276 308.08 118.276C310.089 118.276 312.259 117.595 314.592 116.235C316.924 114.874 319.289 113.157 321.686 111.084C324.149 109.01 327.906 105.641 332.96 100.976ZM294.571 105.933C297.034 104.313 300.079 101.819 303.707 98.4496C307.4 95.0157 310.542 91.4846 313.134 87.8563C315.726 84.1632 317.022 81.0856 317.022 78.6236C317.022 77.5869 316.568 77.0686 315.661 77.0686C313.199 77.0686 308.955 79.4335 302.93 84.1632C296.969 88.8929 291.138 94.9509 285.436 102.337C287.898 102.337 290.943 103.536 294.571 105.933ZM343.748 83.5801C353.596 74.6389 363.153 67.9979 372.418 63.6569C381.683 59.3159 388.842 57.1454 393.896 57.1454C395.256 57.1454 396.52 57.7285 397.686 58.8948C398.852 59.9962 399.759 61.292 400.407 62.7822C401.12 64.2724 401.476 65.3739 401.476 66.0866C401.476 67.2528 401.023 68.1275 400.116 68.7106C399.209 69.2289 397.621 69.8768 395.354 70.6543C395.807 71.691 396.39 73.0192 397.103 74.6389C397.816 76.2587 398.366 77.5869 398.755 78.6236C399.144 79.5954 399.338 80.4701 399.338 81.2476C399.338 82.8026 397.751 85.7182 394.576 89.9944C391.466 94.2058 389.263 97.3157 387.967 99.3243C386.736 101.333 386.121 103.795 386.121 106.71C386.121 111.505 388.324 113.902 392.73 113.902C397.265 113.902 404.36 109.658 414.013 101.171V107.099C397.621 125.305 385.894 134.408 378.832 134.408C376.305 134.408 374.491 133.566 373.39 131.882C372.353 130.262 371.835 127.832 371.835 124.593C371.835 119.474 373.681 112.056 377.374 102.337C367.915 112.833 360.885 120.316 356.285 124.787C351.685 129.193 347.894 131.396 344.914 131.396C343.489 131.396 341.707 130.165 339.569 127.703C337.431 125.241 335.519 122.066 333.835 118.178C332.215 114.226 331.405 110.144 331.405 105.933C331.405 102.888 331.697 100.361 332.28 98.3524C332.863 96.2791 333.997 94.1734 335.681 92.0353C337.366 89.8972 340.055 87.0788 343.748 83.5801ZM390.3 72.8896C373.454 80.5997 361.436 87.1436 354.244 92.5212C347.117 97.8989 343.553 103.438 343.553 109.14C343.553 111.213 343.91 112.93 344.622 114.291C345.335 115.587 346.307 116.235 347.538 116.235C348.251 116.235 349.514 115.781 351.328 114.874C358.131 110.857 364.351 105.641 369.988 99.2271C375.625 92.748 382.395 83.9688 390.3 72.8896ZM486.514 100.976V107.488C479.258 115.975 473.167 122.422 468.243 126.828C463.319 131.169 459.205 133.339 455.901 133.339C452.726 133.339 449.843 132.4 447.251 130.521C444.724 128.642 442.424 126.05 440.351 122.746C438.342 119.442 435.945 114.842 433.159 108.946C429.855 113.028 426.874 116.85 424.218 120.414C421.562 123.912 419.715 126.245 418.678 127.411C417.642 128.577 416.702 129.16 415.86 129.16C414.111 129.16 412.847 128.059 412.07 125.856C411.292 123.588 410.903 120.316 410.903 116.04C410.903 110.209 411.584 104.605 412.944 99.2271C414.37 93.7846 416.378 88.5042 418.97 83.3857C421.626 78.2672 424.995 72.76 429.077 66.864C433.224 60.9033 437.856 54.6834 442.975 48.2043C450.037 39.2631 456.127 31.9742 461.246 26.3374C466.364 20.6358 470.803 16.3596 474.56 13.5088C478.383 10.5932 481.558 9.13541 484.085 9.13541C487.195 9.13541 488.75 10.5284 488.75 13.3144C488.75 15.7117 483.016 24.3613 471.548 39.2631C460.08 54.1002 443.364 74.3798 421.4 100.102V108.46C436.107 92.7156 447.931 81.0208 456.873 73.3755C465.878 65.7302 472.843 61.9075 477.768 61.9075C479.776 61.9075 481.331 63.1062 482.433 65.5034C483.534 67.8359 484.085 70.5571 484.085 73.6671C484.085 80.0166 481.363 85.9125 475.921 91.355C470.479 96.7326 462.121 102.92 450.847 109.918C452.791 112.833 454.508 114.971 455.998 116.332C457.488 117.628 459.367 118.276 461.635 118.276C463.643 118.276 465.814 117.595 468.146 116.235C470.479 114.874 472.843 113.157 475.241 111.084C477.703 109.01 481.461 105.641 486.514 100.976ZM448.126 105.933C450.588 104.313 453.633 101.819 457.261 98.4496C460.954 95.0157 464.097 91.4846 466.688 87.8563C469.28 84.1632 470.576 81.0856 470.576 78.6236C470.576 77.5869 470.122 77.0686 469.215 77.0686C466.753 77.0686 462.509 79.4335 456.484 84.1632C450.523 88.8929 444.692 94.9509 438.99 102.337C441.452 102.337 444.497 103.536 448.126 105.933ZM531.706 94.3678C522.311 106.808 515.152 115.652 510.228 120.9C505.368 126.148 501.384 128.772 498.274 128.772C495.812 128.772 493.544 127.767 491.471 125.759C489.398 123.686 487.778 120.932 486.612 117.498C485.51 113.999 484.959 110.274 484.959 106.322C484.959 103.73 485.186 101.398 485.64 99.3243C486.158 97.2509 487.097 94.9833 488.458 92.5212C489.819 89.9944 491.6 87.2732 493.803 84.3576C496.071 81.442 498.825 78.1376 502.064 74.4446C504.008 72.1769 505.628 70.2656 506.923 68.7106C508.284 67.1556 509.58 66.1189 510.811 65.6006C512.107 65.0175 514.18 64.7259 517.031 64.7259C519.104 64.7259 521.08 65.0175 522.959 65.6006C524.838 66.1189 525.778 66.6697 525.778 67.2528C525.778 68.419 524.806 70.5247 522.862 73.5699C520.983 76.6151 517.906 80.3405 513.629 84.7463C509.418 89.0873 504.526 93.3635 498.954 97.5749C497.723 101.398 497.108 104.313 497.108 106.322C497.108 109.108 498.177 110.501 500.315 110.501C501.092 110.501 502.388 109.853 504.202 108.557C506.016 107.196 509.062 104.637 513.338 100.879C517.679 97.0566 521.566 93.6874 525 90.7719C527.527 88.569 530.443 85.297 533.747 80.9561C537.116 76.5503 539.837 73.2459 541.911 71.0431C546.705 65.9894 549.977 62.7174 551.726 61.2272C553.476 59.6723 555.16 58.8948 556.78 58.8948C558.335 58.8948 559.372 59.3807 559.89 60.3526C560.473 61.3244 560.765 63.3005 560.765 66.2809C560.765 67.6415 560.635 68.743 560.376 69.5853C560.117 70.4275 559.566 71.529 558.724 72.8896C557.946 74.1854 556.326 76.6151 553.864 80.1786C551.402 83.7421 548.487 87.9535 545.118 92.8128C543.304 95.4044 541.716 98.2552 540.356 101.365C538.995 104.41 538.315 106.71 538.315 108.265C538.315 111.635 539.643 113.319 542.299 113.319C544.502 113.319 547.061 112.412 549.977 110.598C552.893 108.784 557.363 105.512 563.389 100.782V107.294C555.808 114.291 550.204 119.377 546.575 122.552C542.947 125.727 539.805 128.124 537.148 129.744C534.492 131.363 531.965 132.173 529.568 132.173C524.125 132.173 521.404 128.934 521.404 122.455C521.404 119.993 522.214 116.688 523.834 112.542C525.454 108.33 528.078 102.272 531.706 94.3678Z" fill="white"/>
</svg>
