<svg width="800" height="669" viewBox="0 0 800 669" fill="none" xmlns="http://www.w3.org/2000/svg">
<path d="M337.618 647.288C341.396 641.895 344.405 637.633 347.375 633.35C357.96 617.978 362.363 601.778 356.404 583.194C353.94 575.477 353.798 566.993 352.566 558.893C349.799 540.511 344.587 523.24 335.861 506.434C327.599 490.556 323.135 472.7 316.954 455.732C312.186 442.662 307.338 429.613 300.592 417.029C302.915 435.693 305.379 454.318 307.5 472.983C308.328 480.275 309.015 487.668 308.752 494.96C307.783 521.543 311.54 547.399 318.974 572.871C322.569 585.193 324.973 597.495 313.156 607.878C307.035 613.271 304.692 621.351 306.429 629.452C308.51 639.107 306.308 647.268 299.844 654.944C284.634 659.146 269.019 658.176 251.304 653.772C257.586 643.975 261.787 634.32 268.655 627.331C288.169 607.494 289.401 583.497 286.815 558.287C282.169 513.039 268.191 469.852 256.98 426.078C253.647 413.069 246.173 401.192 241.345 388.486C237.689 378.931 236.82 367.983 231.77 359.398C226.963 351.177 217.893 345.601 211.49 338.228C201.046 326.149 193.916 312.029 191.835 296.212C187.755 264.983 173.675 238.461 155.435 213.534C143.274 196.909 131.76 179.8 119.903 162.953C114.004 154.59 112.186 154.57 104.349 160.368C100.127 163.478 95.1579 165.579 90.5725 168.225C78.8565 174.972 66.8779 181.315 55.6669 188.829C52.4147 191.011 51.0815 196.425 49.4453 200.566C43.2237 216.483 30.1947 220.927 17.5495 209.817C1.79354 195.98 -4.93305 185.335 3.97514 162.024C7.04554 154.005 10.2573 145.925 14.4387 138.451C21.4481 125.927 24.3973 112.534 24.8619 98.4547C24.9629 95.7883 23.9125 93.0411 23.0439 88.4961C21.3269 93.8491 20.2159 97.3437 18.8019 101.747C12.6611 89.4051 16.5395 76.7599 35.9719 42.6422C24.7609 22.8058 24.1549 9.71619 34.4973 0C39.8705 6.70639 45.2235 13.4128 50.5967 20.099C54.1721 24.543 58.0909 25.856 63.4439 22.5432C67.8879 19.796 73.9075 18.9274 77.3415 15.4126C80.4725 12.2008 81.0583 6.54479 83.2197 0.7878C91.9258 0.7474 98.0464 7.09019 100.491 15.352C103.965 27.068 111.54 31.8756 122.61 33.5522C127.882 34.34 133.053 35.9964 138.345 36.6024C167.474 39.9556 191.148 56.9639 216.802 68.6395C241.385 79.8303 264.191 94.9601 287.906 108.11C293.623 111.282 299.683 114.231 305.965 115.847C325.741 120.937 342.89 131.643 360.767 140.753C366.464 143.662 371.211 148.409 376.826 151.52C398.38 163.438 421.731 163.418 445.426 161.66C477.281 159.277 507.702 150.005 538.547 142.895C582.806 132.673 626.377 135.077 668.453 151.379C702.127 164.428 727.114 188.829 734.588 224.482C740.689 253.53 750.364 281.931 749.314 312.918C748.041 350.894 751.536 389.112 754.122 427.149C755.152 442.178 762.121 457.186 761.333 471.952C759.353 508.817 774.443 540.895 786.502 573.801C789.896 583.052 791.613 589.779 785.977 598.626C779.695 608.444 781.169 611.332 790.562 617.776C802.844 626.22 803.147 640.743 791.229 649.813C790.583 650.298 789.977 650.904 789.29 651.348C782.907 655.873 777.372 660.499 770.524 665.226C759.798 669.993 759.798 669.993 757.596 661.873C756.445 657.55 755.576 653.025 755.475 648.581C755.253 637.895 755.677 627.149 755.637 616.423C755.616 611.494 755.98 606.363 754.768 601.677C749.294 580.608 743.294 559.681 736.265 538.754C736.891 543.521 737.8 548.268 738.143 553.035C738.547 558.772 739.113 564.65 738.366 570.306C737.719 575.275 735.356 580.002 731.78 584.325C729.417 567.943 727.054 551.56 724.67 535.158C724.205 535.138 723.761 535.097 723.296 535.077C722.751 540.612 722.206 546.187 721.66 551.742C720.792 551.823 719.943 551.944 719.075 552.025C719.539 532.027 707.359 515.059 708.47 494.415C709.54 473.791 700.652 456.136 681.785 440.945C684.25 448.036 686.714 452.56 687.26 457.348C688.027 463.59 689.502 471.185 686.876 476.194C673.483 501.727 667.686 529.583 660.374 556.934C655.162 576.406 650.859 596.081 646.335 615.716C644.88 621.998 641.951 625.27 634.901 626.381C623.549 628.219 622.054 631.169 622.802 642.804C623.428 652.944 618.156 659.933 607.874 661.57C594.825 663.65 581.856 663.792 568.565 659.186C569.918 644.036 578.341 632.199 588.502 625.573C605.793 614.302 615.247 598.909 621.226 580.749C627.912 560.428 632.922 539.562 638.558 518.917C638.982 517.342 639.164 515.604 639.002 513.988C636.538 489.526 637.447 464.68 629.286 440.885C625.549 429.997 623.347 418.584 620.176 407.514C616.398 394.506 614.136 380.608 607.813 368.932C602.561 359.277 592.986 351.48 584.018 344.571C581.109 342.349 573.918 344.814 569.029 346.349C561.555 348.631 555.334 349.076 551.233 340.875C548.163 334.754 542.002 335.32 537.053 336.168C529.861 337.38 522.65 339.541 516.004 342.511C487.704 355.156 458.919 365.761 427.69 368.67C407.288 370.569 386.926 373.518 366.524 375.497C360.505 376.083 354.303 374.952 346.183 374.487C346.183 379.457 345.436 384.204 346.304 388.648C352.122 418.523 358.303 448.359 364.323 478.214C364.727 480.214 365.292 482.335 365.05 484.315C361.555 512.292 372.968 536.511 384.3 560.691C389.775 572.366 395.269 583.416 385.916 596.021C379.796 604.282 379.654 612.585 386.947 621.695C394.724 631.371 393.31 639.329 385.189 648.217C383.977 649.551 381.715 650.581 379.917 650.621C367.959 650.783 356.02 650.702 344.062 650.48C342.688 650.439 341.274 649.126 337.618 647.288ZM700.672 374.992C700.672 349.985 700.672 324.977 700.672 300.555C692.451 324.755 678.836 349.46 700.672 374.992ZM89.0978 53.2067C88.7746 53.0249 88.4515 52.8633 88.1283 52.6815C87.9869 52.9845 87.6435 53.4087 87.7445 53.6309C87.8657 53.8733 88.3303 53.9945 88.6535 54.1763C88.8151 53.8531 88.9564 53.5299 89.0978 53.2067Z" fill="white"/>
</svg>
