<?xml version="1.0" encoding="iso-8859-1"?>
<!-- Uploaded to: SVG Repo, www.svgrepo.com, Generator: SVG Repo Mixer Tools -->
<!DOCTYPE svg PUBLIC "-//W3C//DTD SVG 1.1//EN" "http://www.w3.org/Graphics/SVG/1.1/DTD/svg11.dtd">
<svg fill="#000000" version="1.1" id="Capa_1" xmlns="http://www.w3.org/2000/svg" xmlns:xlink="http://www.w3.org/1999/xlink" 
	 width="800px" height="800px" viewBox="0 0 39.604 39.604"
	 xml:space="preserve">
<g>
	<g id="wzwkXb_1_">
		<g>
			<g>
				<path d="M16.714,35.3c0.187-0.267,0.336-0.478,0.483-0.69c0.524-0.761,0.742-1.563,0.447-2.483
					c-0.122-0.382-0.129-0.802-0.19-1.203c-0.137-0.91-0.395-1.765-0.827-2.597c-0.409-0.786-0.63-1.67-0.936-2.51
					c-0.236-0.647-0.476-1.293-0.81-1.916c0.115,0.924,0.237,1.846,0.342,2.77c0.041,0.361,0.075,0.727,0.062,1.088
					c-0.048,1.316,0.138,2.596,0.506,3.857c0.178,0.61,0.297,1.219-0.288,1.733c-0.303,0.267-0.419,0.667-0.333,1.068
					c0.103,0.478-0.006,0.882-0.326,1.262c-0.753,0.208-1.526,0.16-2.403-0.058c0.311-0.485,0.519-0.963,0.859-1.309
					c0.966-0.982,1.027-2.17,0.899-3.418c-0.23-2.24-0.922-4.378-1.477-6.545c-0.165-0.644-0.535-1.232-0.774-1.861
					c-0.181-0.473-0.224-1.015-0.474-1.44c-0.238-0.407-0.687-0.683-1.004-1.048c-0.517-0.598-0.87-1.297-0.973-2.08
					c-0.202-1.546-0.899-2.859-1.802-4.093c-0.602-0.823-1.172-1.67-1.759-2.504c-0.292-0.414-0.382-0.415-0.77-0.128
					c-0.209,0.154-0.455,0.258-0.682,0.389c-0.58,0.334-1.173,0.648-1.728,1.02c-0.161,0.108-0.227,0.376-0.308,0.581
					c-0.308,0.788-0.953,1.008-1.579,0.458c-0.78-0.685-1.113-1.212-0.672-2.366c0.152-0.397,0.311-0.797,0.518-1.167
					c0.347-0.62,0.493-1.283,0.516-1.98c0.005-0.132-0.047-0.268-0.09-0.493c-0.085,0.265-0.14,0.438-0.21,0.656
					c-0.304-0.611-0.112-1.237,0.85-2.926c-0.555-0.982-0.585-1.63-0.073-2.111C1.974,3.588,2.239,3.92,2.505,4.251
					c0.177,0.22,0.371,0.285,0.636,0.121c0.22-0.136,0.518-0.179,0.688-0.353C3.984,3.86,4.013,3.58,4.12,3.295
					c0.431-0.002,0.734,0.312,0.855,0.721c0.172,0.58,0.547,0.818,1.095,0.901c0.261,0.039,0.517,0.121,0.779,0.151
					c1.442,0.166,2.614,1.008,3.884,1.586c1.217,0.554,2.346,1.303,3.52,1.954c0.283,0.157,0.583,0.303,0.894,0.383
					c0.979,0.252,1.828,0.782,2.713,1.233c0.282,0.144,0.517,0.379,0.795,0.533c1.067,0.59,2.223,0.589,3.396,0.502
					c1.577-0.118,3.083-0.577,4.61-0.929c2.191-0.506,4.348-0.387,6.431,0.42c1.667,0.646,2.904,1.854,3.274,3.619
					c0.302,1.438,0.781,2.844,0.729,4.378c-0.063,1.88,0.11,3.772,0.238,5.655c0.051,0.744,0.396,1.487,0.357,2.218
					c-0.098,1.825,0.649,3.413,1.246,5.042c0.168,0.458,0.253,0.791-0.026,1.229c-0.311,0.486-0.238,0.629,0.227,0.948
					c0.608,0.418,0.623,1.137,0.033,1.586c-0.032,0.024-0.062,0.054-0.096,0.076c-0.316,0.224-0.59,0.453-0.929,0.687
					c-0.531,0.236-0.531,0.236-0.64-0.166c-0.057-0.214-0.1-0.438-0.105-0.658c-0.011-0.529,0.01-1.061,0.008-1.592
					c-0.001-0.244,0.017-0.498-0.043-0.73c-0.271-1.043-0.568-2.079-0.916-3.115c0.031,0.236,0.076,0.471,0.093,0.707
					c0.02,0.284,0.048,0.575,0.011,0.855c-0.032,0.246-0.149,0.48-0.326,0.694c-0.117-0.811-0.234-1.622-0.352-2.434
					c-0.023-0.001-0.045-0.003-0.068-0.004c-0.027,0.274-0.054,0.55-0.081,0.825c-0.043,0.004-0.085,0.01-0.128,0.014
					c0.023-0.99-0.58-1.83-0.525-2.852c0.053-1.021-0.387-1.895-1.321-2.647c0.122,0.351,0.244,0.575,0.271,0.812
					c0.038,0.309,0.111,0.685-0.019,0.933c-0.663,1.264-0.95,2.643-1.312,3.997c-0.258,0.964-0.471,1.938-0.695,2.91
					c-0.072,0.311-0.217,0.473-0.566,0.528c-0.562,0.091-0.636,0.237-0.599,0.813c0.031,0.502-0.23,0.848-0.739,0.929
					c-0.646,0.103-1.288,0.11-1.946-0.118c0.067-0.75,0.484-1.336,0.987-1.664c0.856-0.558,1.324-1.32,1.62-2.219
					c0.331-1.006,0.579-2.039,0.858-3.061c0.021-0.078,0.03-0.164,0.022-0.244c-0.122-1.211-0.077-2.441-0.481-3.619
					c-0.185-0.539-0.294-1.104-0.451-1.652c-0.187-0.644-0.299-1.332-0.612-1.91c-0.26-0.478-0.734-0.864-1.178-1.206
					c-0.144-0.11-0.5,0.012-0.742,0.088c-0.37,0.113-0.678,0.135-0.881-0.271c-0.152-0.303-0.457-0.275-0.702-0.233
					c-0.356,0.06-0.713,0.167-1.042,0.314c-1.401,0.626-2.826,1.151-4.372,1.295c-1.01,0.094-2.018,0.24-3.028,0.338
					c-0.298,0.029-0.605-0.027-1.007-0.05c0,0.246-0.037,0.481,0.006,0.701c0.288,1.479,0.594,2.956,0.892,4.434
					c0.02,0.099,0.048,0.204,0.036,0.302c-0.173,1.385,0.392,2.584,0.953,3.781c0.271,0.578,0.543,1.125,0.08,1.749
					c-0.303,0.409-0.31,0.82,0.051,1.271c0.385,0.479,0.315,0.873-0.087,1.313c-0.06,0.066-0.172,0.117-0.261,0.119
					c-0.592,0.008-1.183,0.004-1.775-0.007C16.965,35.456,16.895,35.391,16.714,35.3z M34.687,21.82c0-1.238,0-2.476,0-3.685
					C34.28,19.333,33.606,20.556,34.687,21.82z M4.411,5.89C4.395,5.881,4.379,5.873,4.363,5.864C4.356,5.879,4.339,5.9,4.344,5.911
					C4.35,5.923,4.373,5.929,4.389,5.938C4.397,5.922,4.404,5.906,4.411,5.89z"/>
			</g>
		</g>
	</g>
</g>
</svg>