<svg width="275" height="46" viewBox="0 0 275 46" fill="none" xmlns="http://www.w3.org/2000/svg">
<path d="M40.7665 39.1129L33.1278 21.48L39.3259 21.0579L43.773 32.8923L43.878 32.8852L46.7059 20.5554L52.6415 20.1512L47.4899 38.655L40.7665 39.1129ZM66.9165 37.3321L65.9813 34.8364L59.6519 35.2675L59.0637 37.8669L53.1282 38.2711L58.4898 19.7529L65.2395 19.2933L73.0621 36.9136L66.9165 37.3321ZM60.5845 31.1406L64.4978 30.8742L62.1687 24.5684L62.0636 24.5755L60.5845 31.1406ZM74.0199 18.6954L79.8241 18.3001L80.7398 31.747L90.0108 31.1157L90.3256 35.738L75.2504 36.7646L74.0199 18.6954ZM91.5374 17.5025L107.164 16.4383L107.459 20.7718L97.6367 21.4407L97.8066 23.9357L106.211 23.3634L106.494 27.513L98.0892 28.0853L98.277 30.843L108.283 30.1616L108.578 34.4951L92.7679 35.5717L91.5374 17.5025ZM124.643 33.4011L116.456 25.146L117.053 33.918L111.722 34.281L110.491 16.2118L115.56 15.8666L123.756 24.253L123.15 15.3497L128.482 14.9867L129.712 33.0559L124.643 33.4011ZM143.084 18.6361L144 32.083L138.195 32.4782L137.28 19.0314L131.344 19.4355L131.029 14.8132L148.678 13.6113L148.993 18.2337L143.084 18.6361ZM151.865 11.7057L154.043 8.04812L159.112 7.70295L159.172 7.80443L155.2 11.4786L151.865 11.7057ZM151.585 13.4134L157.389 13.0181L158.62 31.0874L152.816 31.4826L151.585 13.4134ZM175.683 29.9255L167.495 21.6703L168.092 30.4423L162.761 30.8054L161.531 12.7361L166.599 12.391L174.796 20.7774L174.189 11.8741L179.521 11.511L180.751 29.5803L175.683 29.9255ZM209.681 15.0245C209.757 16.1275 209.527 17.1458 208.992 18.0793C208.458 19.0128 207.636 19.7284 206.526 20.2261L211.06 27.5164L204.547 27.9599L200.893 21.586L198.74 21.7326L199.189 28.3248L193.385 28.72L192.154 10.6508L203.211 9.89782C204.507 9.80959 205.627 9.98835 206.572 10.4341C207.533 10.8612 208.271 11.4882 208.785 12.3151C209.315 13.1233 209.614 14.0265 209.681 15.0245ZM203.788 15.6633C203.756 15.1905 203.572 14.8073 203.235 14.5136C202.898 14.2199 202.503 14.0885 202.047 14.1195L198.239 14.3789L198.466 17.7143L202.274 17.455C202.73 17.424 203.104 17.2402 203.398 16.9036C203.69 16.5494 203.82 16.136 203.788 15.6633ZM225.933 26.5035L224.998 24.0078L218.669 24.4389L218.081 27.0383L212.145 27.4425L217.507 8.92432L224.256 8.46468L232.079 26.085L225.933 26.5035ZM219.601 20.312L223.515 20.0455L221.186 13.7398L221.08 13.7469L219.601 20.312ZM241.168 6.99642C243.847 6.81399 246.011 7.34382 247.662 8.58589C249.31 9.81046 250.22 11.6659 250.389 14.1521L244.847 14.5295C244.776 13.479 244.439 12.6664 243.837 12.0917C243.252 11.5159 242.452 11.2625 241.437 11.3317C240.264 11.4116 239.422 11.8383 238.912 12.6118C238.419 13.3841 238.218 14.4269 238.307 15.7401L238.422 17.4209C238.51 18.7166 238.851 19.7224 239.445 20.4383C240.055 21.1355 240.93 21.4454 242.068 21.3679C243.188 21.2916 244.018 20.9449 244.556 20.3277C245.095 19.7106 245.328 18.8767 245.256 17.8262L250.614 17.4613C250.782 19.9301 250.149 21.8729 248.716 23.2898C247.299 24.7056 245.208 25.5076 242.441 25.696C239.36 25.9058 236.969 25.2771 235.268 23.8098C233.585 22.3413 232.639 20.0663 232.429 16.9847C232.219 13.9031 232.848 11.5208 234.317 9.83765C235.803 8.15334 238.087 7.20627 241.168 6.99642ZM265.255 5.67277L272.451 5.18273L266.471 13.057L273.813 23.243L266.958 23.7098L262.752 17.3472L259.776 20.1356L260.051 24.1802L254.247 24.5754L253.017 6.5062L258.821 6.11095L259.347 13.8324L265.255 5.67277Z" fill="white"/>
<path d="M5.78846 26.6115C6.79436 26.6035 7.57257 26.9263 8.12309 27.58C8.67361 28.2337 8.95402 29.2045 8.96432 30.4925C8.97455 31.771 8.70966 32.7415 8.16967 33.4039C7.6296 34.0569 6.85662 34.3875 5.85072 34.3955C4.98583 34.4024 4.2879 34.126 3.75693 33.5661L3.78457 37.021L0.97838 37.0434L0.896612 26.8199L3.18104 26.8016L3.42923 27.8573C3.96794 27.0351 4.75435 26.6198 5.78846 26.6115ZM4.93075 28.6914C4.51711 28.6947 4.20804 28.8429 4.00355 29.136C3.79906 29.4291 3.69869 29.8107 3.70245 30.2807L3.70618 30.7461C3.70993 31.2161 3.81643 31.6007 4.02565 31.8999C4.23481 32.1897 4.5462 32.3329 4.95985 32.3296C5.76833 32.3231 6.1687 31.8358 6.16095 30.8675L6.15498 30.1201C6.14731 29.1612 5.73923 28.685 4.93075 28.6914ZM14.1364 26.5448C15.4431 26.5343 16.4705 26.8598 17.2185 27.5214C17.9759 28.1734 18.3596 29.134 18.3698 30.4031C18.3799 31.6723 18.0116 32.6436 17.2649 33.3171C16.5275 33.9811 15.5054 34.3183 14.1987 34.3288C12.8919 34.3392 11.8646 34.0184 11.1166 33.3662C10.3687 32.7141 9.98963 31.7488 9.9794 30.4703C9.96918 29.1917 10.3328 28.2205 11.0702 27.5564C11.8076 26.8924 12.8297 26.5552 14.1364 26.5448ZM14.1516 28.4485C13.2303 28.4558 12.7739 28.9907 12.7824 30.053L12.7889 30.8568C12.7973 31.9097 13.2621 32.4324 14.1834 32.4251C15.1141 32.4176 15.5753 31.8874 15.5668 30.8345L15.5604 30.0308C15.5519 28.9684 15.0823 28.441 14.1516 28.4485ZM24.2187 26.45C24.4349 26.4483 24.6279 26.475 24.7975 26.53C24.9671 26.5757 25.052 26.6032 25.052 26.6126L25.0709 28.9675L24.1684 28.9747C23.5855 28.9794 23.1637 29.1332 22.9029 29.4361C22.6514 29.739 22.5281 30.1866 22.5328 30.7788L22.5593 34.0927L19.7532 34.1151L19.6936 26.6695L21.9921 26.6512L22.1845 27.7778C22.3502 27.344 22.6156 27.0175 22.9805 26.7984C23.3453 26.5698 23.7581 26.4537 24.2187 26.45Z" fill="white"/>
</svg>
