<svg width="365" height="137" viewBox="0 0 365 137" fill="none" xmlns="http://www.w3.org/2000/svg">
<path d="M92.9101 16.3272C92.9101 16.9104 92.165 18.4005 90.6748 20.7978C89.1846 23.1303 86.9817 26.5966 84.0661 31.1967C81.1505 35.7321 77.6194 41.5633 73.4728 48.6903C69.3262 55.7525 65.05 63.5922 60.6442 72.2093C55.5905 82.1223 51.9299 89.9296 49.6622 95.6312C47.4593 101.268 46.3579 106.127 46.3579 110.209C46.3579 113.449 48.0748 116.299 51.5087 118.762C55.6553 115.522 59.7372 111.667 63.7542 107.196C67.7712 102.726 71.7235 97.7369 75.6109 92.2297C79.5632 86.7225 84.0985 79.7575 89.217 71.3347C94.4003 62.9119 99.0004 55.1693 103.017 48.1071C102.823 47.524 102.596 46.9409 102.337 46.3578C102.143 45.7747 102.046 45.2887 102.046 44.9C102.046 41.8548 102.661 39.004 103.892 36.3476C105.123 33.6912 106.646 31.0996 108.46 28.5727C110.339 26.0459 113.125 22.4824 116.818 17.8822C117.79 16.6512 118.988 16.0357 120.414 16.0357C122.746 16.0357 123.912 17.5259 123.912 20.5062C123.912 23.4866 122.681 28.184 120.219 34.5983C117.822 40.9478 114.259 48.4311 109.529 57.0483C104.799 65.6655 98.9032 75.3193 91.841 86.0098C84.8436 96.6355 76.9067 107.747 68.0304 119.345C59.0245 131.072 52.5778 136.935 48.6903 136.935C46.4874 136.935 43.993 135.704 41.207 133.242C38.421 130.845 36.0237 127.541 34.0152 123.329C32.0067 119.118 31.0024 114.615 31.0024 109.82C31.0024 106.97 31.5855 103.309 32.7518 98.8384C33.9828 94.3678 35.8617 89.0226 38.3886 82.8026C40.9802 76.5179 43.8958 70.3304 47.1353 64.2401C50.5045 57.8258 53.4525 52.5129 55.9793 48.3015C58.5709 44.0901 61.4865 39.4252 64.7261 34.3067C67.9656 29.1234 69.5854 26.305 69.5854 25.8515C69.5854 24.8796 68.9375 24.3937 67.6416 24.3937C63.8838 24.3937 58.8625 26.305 52.5778 30.1277C46.3579 33.9503 38.2266 39.7491 28.184 47.524C24.3614 50.5044 21.9641 52.4481 20.9922 53.3552C19.9556 54.1975 19.4373 54.9102 19.4373 55.4933C19.4373 56.2708 20.0528 56.6595 21.2838 56.6595C21.8021 56.6595 23.5515 56.4652 26.5319 56.0764C29.5122 55.6877 31.8771 55.4933 33.6265 55.4933C36.542 55.4933 37.9998 56.0116 37.9998 57.0483C37.9998 57.9554 37.3843 58.6681 36.1533 59.1864C34.9871 59.7047 33.3349 60.223 31.1968 60.7414C29.1235 61.2597 26.2727 61.9724 22.6444 62.8795C18.757 63.9161 14.6427 65.4063 10.3018 67.35C5.89598 69.2937 3.36914 70.2656 2.72123 70.2656C1.4902 70.2656 0.745107 69.8121 0.485944 68.905C0.161989 67.9979 1.23531e-05 66.5077 1.23531e-05 64.4344C1.23531e-05 55.2341 1.5226 48.1395 4.56777 43.1506C7.61294 38.097 13.0554 32.8489 20.8951 27.4065C29.8362 21.1866 38.3886 16.0357 46.5522 11.9539C54.7159 7.80724 61.7457 4.79447 67.6416 2.91554C73.6024 0.971812 77.9758 -5.06341e-05 80.7618 -5.06341e-05C83.483 -5.06341e-05 86.1718 1.7493 88.8282 5.24801C91.5495 8.74671 92.9101 12.4398 92.9101 16.3272ZM117.79 78.1377C127.638 69.1966 137.195 62.5555 146.46 58.2145C155.725 53.8735 162.884 51.703 167.938 51.703C169.298 51.703 170.562 52.2862 171.728 53.4524C172.894 54.5538 173.801 55.8496 174.449 57.3398C175.162 58.83 175.518 59.9315 175.518 60.6442C175.518 61.8104 175.065 62.6851 174.158 63.2682C173.251 63.7865 171.663 64.4344 169.396 65.2119C169.849 66.2486 170.432 67.5768 171.145 69.1966C171.858 70.8163 172.408 72.1445 172.797 73.1812C173.186 74.1531 173.38 75.0277 173.38 75.8052C173.38 77.3602 171.793 80.2758 168.618 84.552C165.508 88.7634 163.305 91.8734 162.009 93.8819C160.778 95.8904 160.163 98.3524 160.163 101.268C160.163 106.063 162.366 108.46 166.772 108.46C171.307 108.46 178.402 104.216 188.055 95.7284V101.657C171.663 119.863 159.936 128.966 152.874 128.966C150.347 128.966 148.533 128.124 147.432 126.439C146.395 124.819 145.877 122.39 145.877 119.15C145.877 114.032 147.723 106.613 151.416 96.8946C141.957 107.391 134.927 114.874 130.327 119.345C125.727 123.75 121.936 125.953 118.956 125.953C117.531 125.953 115.749 124.722 113.611 122.26C111.473 119.798 109.561 116.623 107.877 112.736C106.257 108.784 105.447 104.702 105.447 100.491C105.447 97.4454 105.739 94.9185 106.322 92.91C106.905 90.8367 108.039 88.731 109.723 86.5929C111.408 84.4548 114.097 81.6364 117.79 78.1377ZM164.342 67.4472C147.496 75.1573 135.478 81.7012 128.286 87.0788C121.159 92.4565 117.595 97.9961 117.595 103.698C117.595 105.771 117.952 107.488 118.664 108.849C119.377 110.144 120.349 110.792 121.58 110.792C122.293 110.792 123.556 110.339 125.37 109.432C132.173 105.415 138.393 100.199 144.03 93.7847C149.667 87.3056 156.437 78.5264 164.342 67.4472ZM233.733 94.465V101.657C220.192 119.604 209.177 128.577 200.69 128.577C196.089 128.577 192.461 126.083 189.805 121.094C187.213 116.04 185.917 109.432 185.917 101.268C185.917 94.6594 187.472 86.8197 190.582 77.749C193.692 68.6134 197.839 59.3807 203.022 50.0509C208.27 40.6562 213.68 32.4926 219.252 25.5599C224.889 18.5625 230.105 13.6708 234.899 10.8848C236.843 9.71857 238.365 9.13546 239.467 9.13546C240.828 9.13546 241.735 9.75097 242.188 10.982C242.642 12.1482 242.868 14.1891 242.868 17.1047C242.868 26.1107 239.208 37.1899 231.886 50.3424C224.565 63.4302 214.36 76.8095 201.273 90.4804C200.625 93.8495 200.301 96.4411 200.301 98.2553C200.301 102.402 201.176 105.771 202.925 108.363C204.739 110.954 207.233 112.25 210.408 112.25C212.028 112.25 213.777 111.635 215.656 110.404C217.535 109.108 219.511 107.52 221.585 105.641C223.658 103.762 227.707 100.037 233.733 94.465ZM204.674 76.9715C208.043 73.6671 211.283 69.9093 214.393 65.6979C217.568 61.4865 220.548 56.9835 223.334 52.189C226.12 47.3944 228.291 43.0859 229.845 39.2632C231.465 35.4405 232.275 32.5573 232.275 30.6136C232.275 29.1234 231.757 28.3783 230.72 28.3783C230.331 28.3783 229.586 28.7347 228.485 29.4474C224.533 32.6869 220.094 39.0364 215.17 48.4959C210.246 57.8906 206.748 67.3824 204.674 76.9715ZM248.505 99.0327V101.462C248.505 105.285 249.445 108.265 251.324 110.404C253.203 112.542 255.665 113.611 258.71 113.611C261.885 113.611 265.157 112.866 268.526 111.375C271.96 109.885 275.361 107.909 278.73 105.447C282.099 102.985 286.214 99.6806 291.073 95.534V101.462C283.751 110.274 276.884 117.045 270.469 121.774C264.055 126.439 257.544 128.772 250.935 128.772C245.169 128.772 240.601 126.536 237.232 122.066C233.863 117.595 232.178 111.473 232.178 103.698C232.178 96.8946 233.765 90.7395 236.94 85.2323C240.115 79.6603 245.298 73.7967 252.49 67.6416C257.414 63.4302 262.306 60.2554 267.165 58.1173C272.024 55.9792 276.365 54.9102 280.188 54.9102C283.233 54.9102 285.63 55.6229 287.38 57.0483C289.194 58.4089 290.101 60.4822 290.101 63.2682C290.101 67.35 288.578 71.4318 285.533 75.5137C282.488 79.5307 277.823 83.5477 271.538 87.5648C265.318 91.517 257.641 95.3397 248.505 99.0327ZM249.477 92.7156C255.308 90.448 260.297 87.6296 264.444 84.2604C268.59 80.8913 271.636 77.6842 273.579 74.639C275.588 71.529 276.592 69.2614 276.592 67.836C276.592 66.3458 275.912 65.6007 274.551 65.6007C273.385 65.6007 271.474 66.3458 268.817 67.836C266.226 69.3261 263.569 71.2699 260.848 73.6671C258.191 76.0644 255.794 78.8828 253.656 82.1223C251.518 85.3619 250.125 88.893 249.477 92.7156ZM356.576 77.9433C345.173 90.6423 339.472 99.4863 339.472 104.475C339.472 107.261 340.605 108.654 342.873 108.654C344.752 108.654 347.182 107.682 350.162 105.739C353.207 103.73 357.937 100.199 364.351 95.1453V101.851C355.151 110.922 348.089 117.466 343.165 121.483C338.241 125.5 334.224 127.508 331.114 127.508C325.801 127.508 323.144 124.01 323.144 117.012C323.144 114.939 323.468 112.898 324.116 110.889C324.764 108.881 325.639 106.808 326.74 104.67C327.906 102.467 329.656 99.3567 331.988 95.3397C334.321 91.2578 337.01 86.6577 340.055 81.5392C336.362 83.4181 331.729 87.1436 326.157 92.7156C322.529 96.2143 319.451 99.5511 316.924 102.726C314.398 105.836 311.676 109.334 308.761 113.222C305.91 117.045 303.804 119.636 302.444 120.997C301.148 122.293 299.82 122.941 298.459 122.941C296.386 122.941 294.474 120.77 292.725 116.429C290.976 112.088 290.101 107.034 290.101 101.268C290.101 97.7045 290.49 94.9185 291.267 92.91C292.109 90.9015 293.729 88.0507 296.127 84.3576C300.597 77.4898 304.452 72.4685 307.692 69.2937C310.931 66.0542 314.041 64.4344 317.022 64.4344C319.095 64.4344 320.747 64.7908 321.978 65.5035C323.274 66.2162 323.922 67.3176 323.922 68.8078C323.922 69.4557 323.727 70.136 323.339 70.8487C322.95 71.5614 322.496 72.2093 321.978 72.7925C321.525 73.3756 320.52 74.5094 318.965 76.194C308.728 87.5324 303.61 94.8861 303.61 98.2553C303.61 100.134 304.225 101.074 305.456 101.074C306.234 101.074 307.724 99.8426 309.927 97.3806C312.195 94.8537 315.078 91.5818 318.577 87.5648C322.14 83.4829 326.319 79.2391 331.114 74.8334C335.973 70.4276 341.48 66.1838 347.635 62.102C351.069 59.7047 353.92 58.5061 356.188 58.5061C357.224 58.5061 358.229 59.9315 359.2 62.7823C360.237 65.6331 360.755 68.5163 360.755 71.4318C360.755 72.8572 359.362 75.0277 356.576 77.9433Z" fill="white"/>
</svg>
